<svg xmlns="http://www.w3.org/2000/svg" width="21.979" height="23.641" viewBox="0 0 21.979 23.641"><defs><style>.a{fill:#393e47;}</style></defs><g transform="translate(0 0)"><g transform="translate(0 0)"><path class="a" d="M13.41,11.837,21.628,3a1.338,1.338,0,0,0,.351-.914,1.334,1.334,0,0,0-.351-.914l-.72-.774a1.146,1.146,0,0,0-1.7,0L10.99,9.233,2.772.394a1.145,1.145,0,0,0-1.7,0l-.72.774A1.364,1.364,0,0,0,.352,3l8.218,8.84L.352,20.676a1.367,1.367,0,0,0,0,1.829l.72.774a1.145,1.145,0,0,0,1.7,0l8.218-8.84,8.218,8.84a1.152,1.152,0,0,0,.85.378h0a1.152,1.152,0,0,0,.85-.378l.72-.774a1.367,1.367,0,0,0,0-1.829Z" transform="translate(0 -0.016)"/></g></g></svg>