<svg xmlns="http://www.w3.org/2000/svg" width="33.555" height="33.945" viewBox="0 0 33.555 33.945"><defs><style>.a{fill:#fff;}</style></defs><path class="a" d="M32.109,0H1.444A1.443,1.443,0,0,0,.16.772a1.426,1.426,0,0,0,.114,1.5L11.508,17.891l.012.016a3.139,3.139,0,0,1,.63,1.88V32.52a1.408,1.408,0,0,0,.417,1.007,1.446,1.446,0,0,0,1.018.418,1.5,1.5,0,0,0,.566-.112l6.313-2.375a1.351,1.351,0,0,0,.941-1.331V19.786a3.141,3.141,0,0,1,.63-1.88l.012-.016L33.279,2.272a1.424,1.424,0,0,0,.114-1.5A1.442,1.442,0,0,0,32.109,0Zm0,0" transform="translate(0.001 0)"/></svg>