<svg xmlns="http://www.w3.org/2000/svg" width="20.394" height="13.11" viewBox="0 0 20.394 13.11"><defs><style>.a{fill:#fff;}</style></defs><g transform="translate(0 -85.333)"><g transform="translate(0 85.333)"><path class="a" d="M20.048,86.9a.728.728,0,0,0-.709-.032l-4.773,2.387V87.518a2.185,2.185,0,0,0-2.185-2.185H2.185A2.185,2.185,0,0,0,0,87.518v8.74a2.185,2.185,0,0,0,2.185,2.185h10.2a2.185,2.185,0,0,0,2.185-2.185V94.523l4.773,2.39a.728.728,0,0,0,1.054-.656v-8.74A.728.728,0,0,0,20.048,86.9ZM7.283,94.8A2.913,2.913,0,1,1,10.2,91.888,2.913,2.913,0,0,1,7.283,94.8Z" transform="translate(0 -85.333)"/></g></g></svg>